<svg width="64" height="64" viewBox="0 0 64 64" fill="none" xmlns="http://www.w3.org/2000/svg">
<path d="M18.6999 0H45.2999C55.4333 0 63.6666 8.23333 63.6666 18.3667V44.9667C63.6666 49.8378 61.7315 54.5094 58.2871 57.9539C54.8427 61.3983 50.1711 63.3333 45.2999 63.3333H18.6999C8.56659 63.3333 0.333252 55.1 0.333252 44.9667V18.3667C0.333252 13.4955 2.26831 8.82389 5.71272 5.37947C9.15714 1.93505 13.8288 0 18.6999 0ZM18.0666 6.33333C15.0431 6.33333 12.1435 7.5344 10.0056 9.67232C7.86765 11.8102 6.66658 14.7099 6.66658 17.7333V45.6C6.66658 51.9017 11.7649 57 18.0666 57H45.9332C48.9567 57 51.8564 55.7989 53.9943 53.661C56.1322 51.5231 57.3332 48.6235 57.3332 45.6V17.7333C57.3332 11.4317 52.2349 6.33333 45.9332 6.33333H18.0666ZM48.6249 11.0833C49.6747 11.0833 50.6816 11.5004 51.4239 12.2427C52.1662 12.985 52.5832 13.9919 52.5832 15.0417C52.5832 16.0915 52.1662 17.0983 51.4239 17.8406C50.6816 18.583 49.6747 19 48.6249 19C47.5751 19 46.5683 18.583 45.8259 17.8406C45.0836 17.0983 44.6666 16.0915 44.6666 15.0417C44.6666 13.9919 45.0836 12.985 45.8259 12.2427C46.5683 11.5004 47.5751 11.0833 48.6249 11.0833ZM31.9999 15.8333C36.1992 15.8333 40.2264 17.5015 43.1958 20.4708C46.1651 23.4401 47.8332 27.4674 47.8332 31.6667C47.8332 35.8659 46.1651 39.8932 43.1958 42.8625C40.2264 45.8318 36.1992 47.5 31.9999 47.5C27.8007 47.5 23.7734 45.8318 20.8041 42.8625C17.8347 39.8932 16.1666 35.8659 16.1666 31.6667C16.1666 27.4674 17.8347 23.4401 20.8041 20.4708C23.7734 17.5015 27.8007 15.8333 31.9999 15.8333ZM31.9999 22.1667C29.4804 22.1667 27.064 23.1676 25.2824 24.9491C23.5008 26.7307 22.4999 29.1471 22.4999 31.6667C22.4999 34.1862 23.5008 36.6026 25.2824 38.3842C27.064 40.1658 29.4804 41.1667 31.9999 41.1667C34.5195 41.1667 36.9358 40.1658 38.7174 38.3842C40.499 36.6026 41.4999 34.1862 41.4999 31.6667C41.4999 29.1471 40.499 26.7307 38.7174 24.9491C36.9358 23.1676 34.5195 22.1667 31.9999 22.1667Z" fill="#FBE886"/>
</svg>
