<svg width="64" height="64" viewBox="0 0 64 64" fill="none" xmlns="http://www.w3.org/2000/svg">
<path d="M18.6999 0.333496H45.2999C55.4333 0.333496 63.6666 8.56683 63.6666 18.7002V45.3002C63.6666 50.1713 61.7315 54.8429 58.2871 58.2874C54.8427 61.7318 50.1711 63.6668 45.2999 63.6668H18.6999C8.56659 63.6668 0.333252 55.4335 0.333252 45.3002V18.7002C0.333252 13.829 2.26831 9.15739 5.71272 5.71297C9.15714 2.26855 13.8288 0.333496 18.6999 0.333496ZM18.0666 6.66683C15.0431 6.66683 12.1435 7.8679 10.0056 10.0058C7.86765 12.1437 6.66658 15.0434 6.66658 18.0668V45.9335C6.66658 52.2352 11.7649 57.3335 18.0666 57.3335H45.9332C48.9567 57.3335 51.8564 56.1324 53.9943 53.9945C56.1322 51.8566 57.3332 48.957 57.3332 45.9335V18.0668C57.3332 11.7652 52.2349 6.66683 45.9332 6.66683H18.0666ZM48.6249 11.4168C49.6747 11.4168 50.6816 11.8339 51.4239 12.5762C52.1662 13.3185 52.5832 14.3253 52.5832 15.3752C52.5832 16.425 52.1662 17.4318 51.4239 18.1741C50.6816 18.9165 49.6747 19.3335 48.6249 19.3335C47.5751 19.3335 46.5683 18.9165 45.8259 18.1741C45.0836 17.4318 44.6666 16.425 44.6666 15.3752C44.6666 14.3253 45.0836 13.3185 45.8259 12.5762C46.5683 11.8339 47.5751 11.4168 48.6249 11.4168ZM31.9999 16.1668C36.1992 16.1668 40.2264 17.835 43.1958 20.8043C46.1651 23.7736 47.8332 27.8009 47.8332 32.0002C47.8332 36.1994 46.1651 40.2267 43.1958 43.196C40.2264 46.1653 36.1992 47.8335 31.9999 47.8335C27.8007 47.8335 23.7734 46.1653 20.8041 43.196C17.8347 40.2267 16.1666 36.1994 16.1666 32.0002C16.1666 27.8009 17.8347 23.7736 20.8041 20.8043C23.7734 17.835 27.8007 16.1668 31.9999 16.1668ZM31.9999 22.5002C29.4804 22.5002 27.064 23.5011 25.2824 25.2826C23.5008 27.0642 22.4999 29.4806 22.4999 32.0002C22.4999 34.5197 23.5008 36.9361 25.2824 38.7177C27.064 40.4993 29.4804 41.5002 31.9999 41.5002C34.5195 41.5002 36.9358 40.4993 38.7174 38.7177C40.499 36.9361 41.4999 34.5197 41.4999 32.0002C41.4999 29.4806 40.499 27.0642 38.7174 25.2826C36.9358 23.5011 34.5195 22.5002 31.9999 22.5002Z" fill="#FFF2F2"/>
</svg>
