<svg width="79" height="59" viewBox="0 0 79 59" fill="none" xmlns="http://www.w3.org/2000/svg">
<path d="M79 7.52146C76.0923 8.72108 72.9579 9.5094 69.7103 9.88642C73.0335 8.06986 75.6013 5.19077 76.8098 1.72902C73.6754 3.44276 70.2012 4.64238 66.5382 5.32787C63.555 2.38024 59.3633 0.666504 54.6052 0.666504C45.7309 0.666504 38.4804 7.24726 38.4804 15.3704C38.4804 16.5357 38.6315 17.6668 38.8958 18.7293C25.4522 18.1124 13.4814 12.2514 5.51338 3.37421C4.11616 5.53352 3.32314 8.06986 3.32314 10.7433C3.32314 15.8502 6.15535 20.3745 10.5359 22.9451C7.85468 22.9451 5.36233 22.2596 3.17208 21.2314V21.3342C3.17208 28.4633 8.761 34.4272 16.1625 35.7639C13.7862 36.3541 11.2915 36.4362 8.87428 36.0038C9.89995 38.9257 11.9087 41.4823 14.6181 43.3144C17.3275 45.1464 20.6014 46.1618 23.9794 46.2177C18.2532 50.3322 11.1551 52.5562 3.85182 52.5242C2.56788 52.5242 1.28394 52.4557 0 52.3186C7.17495 56.5001 15.7094 58.9336 24.848 58.9336C54.6052 58.9336 70.9565 36.5179 70.9565 17.0841C70.9565 16.4329 70.9565 15.816 70.9187 15.1647C74.0908 13.1082 76.8097 10.5034 79 7.52146Z" fill="#FBE886"/>
</svg>
