<svg width="79" height="59" viewBox="0 0 79 59" fill="none" xmlns="http://www.w3.org/2000/svg">
<path d="M79 6.85496C76.0923 8.05457 72.9579 8.84289 69.7103 9.21992C73.0335 7.40335 75.6013 4.52427 76.8098 1.06252C73.6754 2.77626 70.2012 3.97588 66.5382 4.66137C63.555 1.71374 59.3633 0 54.6052 0C45.7309 0 38.4804 6.58076 38.4804 14.7039C38.4804 15.8692 38.6315 17.0003 38.8958 18.0628C25.4522 17.4459 13.4814 11.5849 5.51338 2.70771C4.11616 4.86702 3.32314 7.40335 3.32314 10.0768C3.32314 15.1837 6.15535 19.708 10.5359 22.2786C7.85468 22.2786 5.36233 21.5931 3.17208 20.5649V20.6677C3.17208 27.7968 8.761 33.7607 16.1625 35.0974C13.7862 35.6876 11.2915 35.7697 8.87428 35.3373C9.89995 38.2592 11.9087 40.8158 14.6181 42.6479C17.3275 44.4799 20.6014 45.4953 23.9794 45.5512C18.2532 49.6657 11.1551 51.8897 3.85182 51.8577C2.56788 51.8577 1.28394 51.7892 0 51.6521C7.17495 55.8336 15.7094 58.2671 24.848 58.2671C54.6052 58.2671 70.9565 35.8514 70.9565 16.4176C70.9565 15.7664 70.9565 15.1495 70.9187 14.4982C74.0908 12.4417 76.8097 9.83686 79 6.85496Z" fill="#FFF2F2"/>
</svg>
