<svg width="79" height="51" viewBox="0 0 79 51" fill="none" xmlns="http://www.w3.org/2000/svg">
<path d="M31.6 35.9605L52.1005 25.2305L31.6 14.5005V35.9605ZM77.262 7.95521C77.7755 9.63624 78.131 11.8895 78.368 14.7509C78.6445 17.6122 78.763 20.0801 78.763 22.2261L79 25.2305C79 33.0634 78.368 38.8218 77.262 42.5058C76.2745 45.7248 73.9835 47.7993 70.4285 48.6934C68.572 49.1584 65.175 49.4803 59.961 49.6949C54.826 49.9453 50.1255 50.0526 45.7805 50.0526L39.5 50.2672C22.9495 50.2672 12.64 49.6949 8.5715 48.6934C5.0165 47.7993 2.7255 45.7248 1.738 42.5058C1.2245 40.8248 0.869 38.5715 0.632 35.7101C0.3555 32.8488 0.237 30.3809 0.237 28.2349L0 25.2305C0 17.3976 0.632 11.6392 1.738 7.95521C2.7255 4.73621 5.0165 2.66175 8.5715 1.76758C10.428 1.30261 13.825 0.980713 19.039 0.766114C24.174 0.515747 28.8745 0.408447 33.2195 0.408447L39.5 0.193848C56.0505 0.193848 66.36 0.766114 70.4285 1.76758C73.9835 2.66175 76.2745 4.73621 77.262 7.95521Z" fill="#FFF2F2"/>
</svg>
