<svg width="79" height="51" viewBox="0 0 79 51" fill="none" xmlns="http://www.w3.org/2000/svg">
<path d="M31.6 36.627L52.1005 25.897L31.6 15.167V36.627ZM77.262 8.62172C77.7755 10.3027 78.131 12.556 78.368 15.4174C78.6445 18.2787 78.763 20.7466 78.763 22.8926L79 25.897C79 33.7299 78.368 39.4883 77.262 43.1723C76.2745 46.3913 73.9835 48.4658 70.4285 49.3599C68.572 49.8249 65.175 50.1468 59.961 50.3614C54.826 50.6118 50.1255 50.7191 45.7805 50.7191L39.5 50.9337C22.9495 50.9337 12.64 50.3614 8.5715 49.3599C5.0165 48.4658 2.7255 46.3913 1.738 43.1723C1.2245 41.4913 0.869 39.238 0.632 36.3766C0.3555 33.5153 0.237 31.0474 0.237 28.9014L0 25.897C0 18.0641 0.632 12.3057 1.738 8.62172C2.7255 5.40272 5.0165 3.32825 8.5715 2.43408C10.428 1.96912 13.825 1.64722 19.039 1.43262C24.174 1.18225 28.8745 1.07495 33.2195 1.07495L39.5 0.860352C56.0505 0.860352 66.36 1.43262 70.4285 2.43408C73.9835 3.32825 76.2745 5.40272 77.262 8.62172Z" fill="#FBE886"/>
</svg>
